<svg xmlns="http://www.w3.org/2000/svg" version="1.0" preserveAspectRatio="xMidYMid meet" viewBox="21 19.09 227.88 146.91">  <g transform="translate(0.000000,183.000000) scale(0.100000,-0.100000)" fill="#901c21" stroke="none"> <path d="M1275 1635 c-5 -2 -44 -13 -85 -26 -257 -78 -418 -323 -396 -601 7 -81 18 -120 60 -208 26 -54 114 -166 123 -156 6 6 -29 66 -39 66 -4 0 -8 9 -8 21 0 13 -4 18 -12 13 -7 -5 -9 -2 -5 9 3 9 0 18 -8 21 -18 7 -47 74 -38 90 3 6 2 7 -2 3 -8 -7 -49 62 -41 70 2 2 26 -18 53 -44 62 -59 104 -139 111 -212 6 -64 13 -72 122 -129 96 -51 182 -67 307 -58 86 6 192 34 218 57 5 6 -77 9 -200 8 -120 -1 -210 2 -209 7 1 5 13 15 28 22 26 13 26 14 26 130 l0 118 -40 1 c-65 3 -136 57 -176 135 -23 45 -38 249 -22 312 15 60 78 130 127 141 31 7 31 7 31 74 0 65 17 111 41 111 6 0 8 -4 5 -8 -2 -4 4 -8 15 -8 10 0 19 4 19 8 0 13 38 9 43 -4 4 -10 8 -10 15 1 10 14 20 13 140 -5 18 -2 54 -13 80 -23 26 -10 53 -16 60 -14 11 4 17 -9 13 -31 -1 -5 5 -6 14 -3 8 4 15 2 15 -4 0 -6 3 -8 8 -5 11 6 47 -22 38 -31 -4 -4 -10 -3 -14 2 -10 14 -26 17 -126 22 -69 4 -87 2 -81 -7 6 -10 1 -11 -19 -6 -20 5 -26 3 -21 -5 6 -8 2 -8 -13 0 -26 14 -35 14 -27 1 3 -5 1 -10 -4 -10 -6 0 -10 -6 -8 -12 1 -7 -6 -12 -15 -12 -10 1 -16 -2 -13 -6 6 -10 -31 -24 -43 -16 -5 3 -7 -7 -5 -22 3 -17 1 -22 -4 -15 -5 7 -14 9 -23 3 -9 -6 -18 -3 -28 8 -7 9 -11 11 -7 5 4 -8 0 -13 -9 -13 -8 0 -17 6 -19 13 -3 6 -6 2 -6 -11 -1 -13 -5 -21 -11 -17 -5 3 -21 3 -35 -1 -36 -9 -135 -153 -135 -197 0 -6 28 31 63 83 l63 95 79 3 c72 3 83 6 110 31 56 53 129 81 209 81 68 0 181 -24 214 -46 26 -16 72 -61 72 -69 0 -2 -15 -13 -33 -24 -19 -11 -46 -32 -61 -46 -27 -25 -53 -34 -41 -15 4 6 1 17 -5 25 -7 8 -9 15 -5 15 4 0 -4 11 -18 24 -20 18 -23 26 -14 36 9 10 8 12 -4 7 -12 -4 -16 1 -16 19 0 13 3 22 7 19 3 -2 7 3 7 11 0 23 -19 11 -44 -29 -23 -36 -23 -37 -3 -37 13 0 27 -12 38 -31 9 -17 31 -52 48 -78 45 -68 68 -143 60 -202 -6 -46 -5 -49 19 -55 28 -7 103 9 147 32 24 13 28 20 28 58 0 63 -41 195 -81 261 -36 60 -127 152 -196 198 -23 16 -82 42 -132 58 -74 23 -108 29 -179 28 -48 0 -91 -2 -97 -4z m-94 -88 c7 -60 4 -71 -26 -98 -16 -16 -35 -29 -40 -29 -6 0 -21 -14 -35 -31 -14 -17 -33 -40 -42 -51 -17 -19 -23 -45 -19 -75 1 -7 -2 -13 -6 -13 -5 0 -8 -37 -8 -82 0 -61 -4 -82 -14 -86 -8 -3 -11 0 -7 7 7 10 -5 15 -20 9 -4 -2 -11 7 -15 20 -5 13 -14 20 -20 16 -7 -4 -7 1 1 16 8 15 8 20 1 16 -6 -4 -11 0 -11 8 0 9 -4 15 -9 13 -13 -3 -64 55 -54 62 5 3 8 13 8 21 0 8 10 30 22 49 13 18 20 38 16 44 -4 7 0 8 11 4 14 -6 17 -3 12 8 -4 11 -2 14 6 9 8 -5 9 -2 5 10 -4 10 -3 15 3 11 6 -3 14 4 19 17 5 13 20 30 35 37 14 8 23 18 20 23 -3 4 1 8 8 8 7 0 28 14 46 31 17 16 32 26 32 20 0 -6 -8 -15 -17 -20 -10 -6 -13 -11 -7 -11 12 0 46 34 40 41 -2 2 11 5 30 6 21 2 34 -2 35 -10z m691 -256 c-3 -9 -1 -12 7 -7 6 4 10 4 9 -1 -1 -4 5 -37 14 -73 18 -69 30 -155 21 -146 -4 3 -11 2 -17 -3 -6 -4 -26 -13 -43 -19 -28 -9 -34 -8 -43 6 -8 14 -9 14 -10 2 0 -12 -2 -13 -9 -1 -5 7 -6 22 -4 32 6 23 -15 117 -33 145 -17 29 -7 63 22 70 13 3 24 11 24 16 0 6 7 8 15 5 8 -4 17 -2 20 3 9 14 33 -12 27 -29z m-977 -127 c17 -31 53 -77 80 -101 28 -25 50 -53 51 -63 2 -24 53 -95 84 -115 25 -16 25 -16 -15 -9 -22 4 -60 8 -85 9 -50 2 -40 -3 58 -31 34 -9 62 -20 62 -24 0 -7 21 -13 75 -22 30 -5 33 -16 36 -108 2 -72 0 -85 -14 -88 -10 -2 -20 -14 -23 -28 -8 -30 -33 -31 -70 -2 -15 13 -25 17 -21 11 4 -7 -10 0 -33 14 -22 15 -40 33 -40 40 0 7 -4 13 -10 13 -5 0 -10 7 -10 16 0 8 -5 12 -11 8 -8 -5 -8 -1 0 14 13 25 14 35 3 28 -5 -3 -16 19 -26 48 -9 30 -23 57 -31 60 -8 3 -15 13 -15 23 0 15 2 16 10 3 8 -13 10 -12 10 3 0 9 -3 17 -7 18 -31 3 -49 11 -72 31 -14 12 -30 26 -34 29 -5 4 -12 31 -16 62 l-7 56 30 -16 c17 -9 38 -25 47 -37 44 -56 78 -90 84 -84 4 3 -10 22 -29 42 -20 19 -36 38 -36 42 0 15 -64 63 -92 69 -27 6 -28 8 -14 24 11 12 13 20 5 28 -8 8 -2 17 20 34 32 24 42 45 16 35 -15 -5 -20 5 -8 17 12 13 18 7 48 -49z"/> <path d="M1161 1294 c-12 -16 -21 -36 -21 -42 0 -7 -4 -12 -10 -12 -5 0 -20 -19 -32 -42 -32 -61 -31 -157 3 -218 29 -53 90 -98 144 -107 l40 -6 -31 29 c-49 47 -87 138 -82 196 5 47 50 147 89 197 11 13 19 26 19 30 0 3 -22 6 -49 6 -43 0 -51 -4 -70 -31z m26 -31 c4 -11 -3 -24 -22 -39 -27 -21 -27 -22 -7 -28 19 -6 20 -10 9 -29 -7 -12 -18 -27 -24 -35 -16 -16 -17 -26 -3 -17 8 5 16 -69 8 -77 -2 -2 7 -17 20 -35 12 -17 22 -34 22 -37 0 -9 -51 24 -75 48 -19 19 -31 91 -13 80 4 -3 8 1 9 8 1 7 2 20 3 28 2 8 3 24 4 35 2 17 4 18 13 5 7 -11 8 -5 4 21 -5 26 -2 39 9 48 9 8 16 20 16 27 0 19 19 17 27 -3z"/> <path d="M1480 1320 c1 -17 20 -27 52 -28 44 -2 98 -27 98 -46 0 -7 -10 -20 -22 -28 l-23 -15 30 -16 c17 -8 39 -24 49 -36 19 -21 19 -21 -2 -21 -11 0 -27 -3 -36 -6 -9 -3 -16 -2 -16 4 0 18 -73 141 -88 147 -9 3 -7 -5 8 -27 48 -72 65 -122 64 -183 -1 -68 -22 -122 -66 -166 l-30 -29 39 0 c52 1 121 33 132 64 9 22 3 55 -26 150 -4 12 -2 17 4 13 6 -4 13 0 17 8 3 8 12 15 20 15 21 0 28 -31 11 -50 -8 -9 -15 -33 -14 -56 l1 -39 17 53 c9 29 21 49 25 45 5 -4 6 15 4 44 -3 36 -13 63 -31 87 -15 19 -27 38 -27 41 0 4 -13 24 -30 45 -29 37 -31 38 -95 37 -36 -1 -65 -4 -65 -7z m167 -336 c-4 -48 -11 -62 -23 -43 -5 8 -3 10 6 4 9 -5 11 -4 6 4 -10 15 -27 4 -20 -13 3 -8 1 -17 -5 -20 -18 -11 -21 11 -6 50 7 22 16 47 19 57 11 33 27 6 23 -39z"/> <path d="M1273 1239 c-62 -104 -69 -128 -55 -196 12 -59 57 -136 76 -130 16 4 56 87 56 114 0 32 -54 89 -92 97 l-33 7 30 13 c19 8 36 10 47 5 9 -5 26 -9 37 -9 30 0 100 -71 108 -111 l7 -34 6 35 c4 24 7 30 12 19 3 -9 -5 -39 -20 -69 -26 -52 -70 -90 -105 -90 -10 0 -15 -4 -12 -10 10 -16 86 -11 125 8 19 9 42 32 51 49 9 18 19 30 21 27 11 -10 28 60 28 110 0 53 -9 72 -83 180 l-39 56 -61 0 -62 -1 -42 -70z m83 -11 c20 -18 54 -50 75 -72 32 -31 42 -36 54 -26 8 6 23 9 35 5 16 -5 20 -15 20 -46 0 -22 -5 -39 -11 -39 -7 0 -9 9 -6 21 3 12 3 18 0 15 -3 -3 -12 2 -20 12 -16 19 -18 25 14 -62 7 -21 12 -41 9 -43 -5 -6 -51 79 -48 89 1 4 -5 5 -13 2 -8 -4 -15 -1 -15 5 0 6 -6 10 -12 8 -7 -1 -12 4 -10 11 1 6 -2 12 -7 12 -5 0 -12 8 -16 19 -8 26 -90 49 -117 32 -25 -16 -39 -4 -16 13 10 7 15 15 13 18 -8 8 13 58 24 58 6 0 27 -15 47 -32z m69 21 c4 -5 12 -8 18 -6 13 4 52 -52 43 -60 -3 -3 -19 0 -36 7 -21 9 -29 18 -25 28 4 10 0 12 -12 8 -15 -6 -32 8 -33 27 0 11 38 8 45 -4z m-162 -148 c4 10 6 8 6 -4 1 -10 6 -15 11 -12 6 3 13 -1 16 -9 3 -9 11 -13 17 -9 7 4 8 0 4 -12 -4 -9 -2 -23 4 -31 12 -15 -6 -58 -22 -49 -5 4 -9 -1 -9 -11 0 -13 -4 -11 -19 7 -11 13 -15 26 -10 28 6 1 2 12 -8 24 -10 11 -12 17 -4 12 10 -6 12 -2 6 16 -15 53 -17 64 -7 50 8 -11 10 -11 15 0z"/> <path d="M1626 855 c-11 -8 -28 -15 -38 -15 -16 0 -18 -11 -18 -118 l0 -119 57 -16 58 -16 35 27 c44 33 140 130 140 142 0 4 -18 11 -39 15 -46 8 -125 57 -148 91 -18 28 -21 28 -47 9z m36 -44 c15 -8 25 -18 22 -23 -3 -4 6 -12 20 -18 14 -5 26 -15 26 -21 0 -6 6 -9 13 -7 6 3 20 -3 30 -12 16 -15 16 -18 2 -23 -8 -4 -15 -13 -15 -20 0 -19 -78 -70 -96 -63 -8 3 -14 0 -14 -6 0 -6 -11 1 -25 16 -21 22 -25 37 -25 85 0 55 15 89 34 76 3 -3 2 1 -4 7 -12 14 -13 31 -2 26 4 -2 19 -10 34 -17z"/> <path d="M1300 724 c0 -114 2 -125 18 -122 15 3 17 18 20 117 3 111 -2 130 -30 131 -5 0 -8 -57 -8 -126z"/> <path d="M1480 725 c0 -127 4 -138 38 -117 9 6 12 37 10 117 -3 101 -4 108 -25 116 l-23 8 0 -124z"/> <path d="M1380 720 c0 -66 1 -120 3 -120 1 0 16 -4 32 -9 l31 -8 1 128 1 129 -34 0 -34 0 0 -120z"/> <path d="M2450 435 c0 -66 -7 -78 -30 -50 -8 9 -29 15 -56 15 -92 0 -144 -103 -92 -180 30 -45 101 -63 142 -37 31 21 36 21 36 1 0 -9 7 -14 18 -12 15 3 17 20 20 166 2 157 2 162 -18 162 -18 0 -20 -6 -20 -65z m-45 -71 c19 -8 45 -55 45 -83 0 -11 -11 -32 -23 -47 -31 -35 -77 -37 -112 -4 -64 60 7 166 90 134z"/> <path d="M719 464 c-17 -21 0 -49 32 -49 27 0 37 28 19 50 -16 19 -34 19 -51 -1z"/> <path d="M1600 410 l0 -70 -90 0 -90 0 0 65 c0 58 -2 65 -20 65 -19 0 -20 -7 -20 -150 0 -143 1 -150 20 -150 18 0 20 7 20 70 l0 70 90 0 90 0 0 -70 c0 -63 2 -70 20 -70 19 0 20 7 20 155 0 148 -1 155 -20 155 -18 0 -20 -7 -20 -70z"/> <path d="M210 445 c0 -14 6 -25 14 -25 12 0 51 -112 75 -215 6 -28 10 -30 51 -30 l45 0 19 94 c22 104 24 103 51 -21 l18 -76 42 0 42 0 21 71 c12 40 26 94 33 120 7 27 19 52 28 55 9 4 16 17 17 30 1 21 -3 22 -66 22 -66 0 -67 0 -62 -25 2 -14 11 -25 19 -25 11 0 14 -6 9 -22 -16 -58 -26 -124 -20 -142 6 -17 5 -18 -8 -6 -14 15 -41 108 -53 183 -6 35 -8 37 -44 37 l-38 0 -23 -97 c-31 -136 -31 -135 -49 -63 -10 36 -21 75 -25 88 -6 18 -4 22 13 22 16 0 21 6 21 25 0 24 -2 25 -65 25 -63 0 -65 -1 -65 -25z m243 -61 c-4 -12 -8 -12 -21 -2 -12 10 -14 10 -8 1 4 -7 2 -13 -3 -13 -14 0 -14 6 1 30 14 22 41 9 31 -16z"/> <path d="M1758 384 c-31 -16 -58 -61 -58 -94 0 -42 32 -92 68 -107 102 -43 196 40 162 142 -22 67 -106 96 -172 59z m115 -39 c36 -34 37 -82 2 -115 -35 -33 -81 -31 -112 4 -27 31 -29 56 -8 96 24 46 77 52 118 15z"/> <path d="M2030 384 c-41 -27 -50 -45 -50 -96 0 -39 6 -54 29 -80 27 -30 34 -33 87 -32 51 0 60 3 85 32 31 35 39 90 18 135 -24 52 -118 75 -169 41z m114 -35 c32 -25 36 -84 7 -120 -26 -32 -87 -31 -113 3 -26 34 -23 84 7 113 30 30 64 32 99 4z"/> <path d="M680 348 c0 -21 5 -28 20 -28 17 0 20 -7 20 -51 0 -46 -2 -50 -20 -44 -17 5 -20 2 -20 -23 l0 -30 60 1 c59 2 60 2 60 29 0 19 -5 28 -16 28 -13 0 -15 11 -13 71 l4 71 -48 2 c-45 2 -47 1 -47 -26z"/> <path d="M840 351 c0 -21 5 -31 15 -31 11 0 15 -12 15 -50 0 -40 -3 -48 -15 -44 -11 5 -15 -1 -15 -23 0 -29 0 -29 65 -29 l65 -1 0 29 c0 25 -3 28 -20 23 -18 -6 -20 -2 -20 40 0 39 4 47 25 57 40 18 55 -3 55 -81 l0 -67 45 -2 c44 -2 45 -1 45 28 0 22 -4 28 -15 24 -12 -5 -15 5 -15 53 0 80 -16 101 -72 96 -56 -5 -119 -4 -140 3 -15 4 -18 -1 -18 -25z"/> <path d="M1177 373 c-18 -5 -57 -71 -57 -97 0 -29 33 -84 57 -95 30 -14 83 -14 118 -1 21 8 24 13 16 29 -9 15 -18 18 -56 14 -45 -6 -75 7 -75 31 0 7 24 10 75 8 l75 -4 0 29 c0 16 -10 43 -22 59 -19 25 -30 30 -68 31 -25 1 -53 -1 -63 -4z m81 -45 c21 -21 13 -28 -35 -28 -45 0 -46 0 -28 20 20 23 45 26 63 8z"/> </g> </svg>